<svg width="36" height="36" viewBox="0 0 36 36" fill="none" xmlns="http://www.w3.org/2000/svg">
    <path d="M2.089 25.84V3.96c0-.46.195-.897.585-1.312.39-.415.822-.623 1.296-.623h19.802c.485 0 .922.201 1.312.604.39.403.586.846.586 1.331v13.69c0 .473-.196.915-.586 1.323-.39.408-.827.612-1.312.612H8.342L2.09 25.839zm8.533 1.987c-.477 0-.912-.208-1.307-.623-.394-.415-.59-.853-.59-1.313v-4.056H27.92V8.66h4.131c.46 0 .885.207 1.275.623.39.415.585.865.585 1.35v23.303l-6.11-6.11H10.622zM22.7 5.017H5.08v13.837l2.24-2.24H22.7V5.017z" fill="#3F3F3F"/>
</svg>
