<svg width="46" height="24" viewBox="0 0 46 24" fill="none" xmlns="http://www.w3.org/2000/svg">
    <path d="M7.982 14.91a2.926 2.926 0 0 1-2.11-.864c-.592-.575-.889-1.257-.889-2.046 0-.822.297-1.512.89-2.07a2.971 2.971 0 0 1 2.109-.84c.813 0 1.525.28 2.134.84.61.558.915 1.232.915 2.02 0 .823-.305 1.521-.915 2.096-.61.575-1.321.863-2.134.863zm15.043 0c-.847 0-1.567-.289-2.16-.864-.592-.575-.889-1.257-.889-2.046 0-.822.297-1.512.89-2.07a2.971 2.971 0 0 1 2.109-.84c.847 0 1.558.28 2.134.84.576.558.864 1.232.864 2.02a2.85 2.85 0 0 1-.864 2.096 2.841 2.841 0 0 1-2.084.863zm14.942 0c-.847 0-1.567-.289-2.16-.864-.593-.575-.89-1.257-.89-2.046 0-.822.297-1.512.89-2.07.593-.56 1.313-.84 2.16-.84.847 0 1.567.28 2.16.84.593.558.89 1.232.89 2.02a2.81 2.81 0 0 1-.89 2.096c-.593.575-1.313.863-2.16.863z" fill="#5F5F5F"/>
</svg>
