<svg width="36" height="36" viewBox="0 0 36 36" fill="none" xmlns="http://www.w3.org/2000/svg">
    <path d="M27.261 33.487c-1.314 0-2.436-.466-3.366-1.4-.93-.932-1.395-2.055-1.395-3.366 0-.172.019-.385.056-.64.038-.256.094-.495.169-.716L12.147 21.21a4.74 4.74 0 0 1-1.522 1.127 4.244 4.244 0 0 1-1.84.425c-1.326 0-2.453-.465-3.38-1.396-.929-.931-1.393-2.053-1.393-3.367s.464-2.436 1.392-3.366c.928-.93 2.055-1.395 3.38-1.395.63 0 1.23.123 1.803.369a4.977 4.977 0 0 1 1.56 1.07l10.578-6.08a3.056 3.056 0 0 1-.169-.65 4.466 4.466 0 0 1-.056-.68c0-1.308.465-2.428 1.396-3.358.931-.931 2.054-1.397 3.368-1.397s2.436.466 3.366 1.397c.93.931 1.395 2.053 1.395 3.367s-.464 2.436-1.392 3.366c-.928.93-2.054 1.396-3.38 1.396a5.74 5.74 0 0 1-1.83-.292 3.272 3.272 0 0 1-1.474-.993L13.35 16.565c.064.214.111.463.142.747.03.284.045.517.045.697 0 .18-.015.375-.045.583-.03.209-.078.427-.142.655l10.6 5.963c.4-.393.875-.7 1.424-.919.548-.219 1.175-.329 1.879-.329 1.326 0 2.452.466 3.38 1.397.928.931 1.392 2.053 1.392 3.367s-.465 2.436-1.396 3.366c-.931.93-2.054 1.395-3.368 1.395zM27.264 9.3c.574 0 1.055-.194 1.442-.583.388-.388.582-.87.582-1.443 0-.574-.195-1.055-.583-1.443-.388-.387-.87-.581-1.444-.581s-1.055.194-1.442.583c-.388.388-.581.87-.581 1.443 0 .574.194 1.055.582 1.443.388.387.87.581 1.444.581zM8.776 20.025c.574 0 1.055-.194 1.443-.583.387-.388.581-.87.581-1.443 0-.574-.194-1.055-.583-1.443-.388-.387-.87-.581-1.443-.581-.574 0-1.055.194-1.443.583-.387.388-.581.87-.581 1.443 0 .574.194 1.055.583 1.443.388.387.87.581 1.443.581zM27.264 30.75c.574 0 1.055-.194 1.442-.583.388-.388.582-.87.582-1.443 0-.574-.195-1.055-.583-1.443-.388-.387-.87-.581-1.444-.581s-1.055.194-1.442.583c-.388.388-.581.87-.581 1.443 0 .574.194 1.055.582 1.443.388.387.87.581 1.444.581z" fill="#3F3F3F"/>
</svg>
