<svg width="48" height="48" viewBox="0 0 48 48" fill="none" xmlns="http://www.w3.org/2000/svg">
    <path d="M22.02 32.135h3.96v-8.733l3.53 3.53 2.807-2.778L24 15.865l-8.318 8.29 2.807 2.778 3.53-3.53v8.732zm1.984 12.572c-2.85 0-5.533-.54-8.05-1.62-2.518-1.08-4.718-2.56-6.6-4.442-1.88-1.881-3.361-4.08-4.44-6.595-1.08-2.515-1.62-5.197-1.62-8.046 0-2.882.54-5.582 1.62-8.1 1.079-2.518 2.558-4.71 4.436-6.576 1.879-1.865 4.076-3.342 6.593-4.43 2.517-1.089 5.2-1.633 8.05-1.633 2.885 0 5.587.544 8.107 1.63 2.52 1.087 4.712 2.562 6.576 4.425 1.864 1.863 3.34 4.054 4.428 6.573 1.087 2.518 1.63 5.22 1.63 8.107 0 2.852-.543 5.536-1.632 8.054-1.088 2.517-2.565 4.716-4.43 6.594-1.866 1.88-4.056 3.359-6.572 4.439-2.515 1.08-5.214 1.62-8.096 1.62z" fill="#0017FF"/>
</svg>
